<svg width="50" height="50" viewBox="0 0 50 50" fill="none" xmlns="http://www.w3.org/2000/svg">
<path d="M37.5868 8.94098H34.1146V9.80903C34.1146 11.487 32.7543 12.8472 31.0764 12.8472C29.3984 12.8472 28.0382 11.487 28.0382 9.80903V8.94098H21.0938V9.80903C21.0938 11.487 19.7335 12.8472 18.0556 12.8472C16.3776 12.8472 15.0174 11.487 15.0174 9.80903V8.94098H12.4132C10.4956 8.94098 8.94098 10.4955 8.94098 12.4132V37.5868C8.94098 39.5044 10.4956 41.059 12.4132 41.059H37.5868C39.5045 41.059 41.059 39.5044 41.059 37.5868V12.4132C41.059 10.4955 39.5045 8.94098 37.5868 8.94098Z" stroke="black" stroke-width="1.11111" stroke-linecap="round" stroke-linejoin="round"/>
</svg>
