<svg width="43" height="43" viewBox="0 0 43 43" fill="none" xmlns="http://www.w3.org/2000/svg">
<g clip-path="url(#clip0_9_32)">
<path d="M23.8648 26.5165L21.2132 29.1681C20.1583 30.223 18.7276 30.8157 17.2357 30.8157C15.7439 30.8157 14.3131 30.223 13.2582 29.1681C12.2033 28.1133 11.6107 26.6825 11.6107 25.1907C11.6107 23.6988 12.2033 22.2681 13.2582 21.2132L15.9099 18.5615" stroke="#2DD1F5" stroke-width="1.5625"/>
<path d="M18.5615 15.9099L21.2132 13.2583C22.2681 12.2034 23.6988 11.6107 25.1907 11.6107C26.6825 11.6107 28.1132 12.2034 29.1681 13.2583C30.223 14.3132 30.8157 15.7439 30.8157 17.2357C30.8157 18.7276 30.223 20.1583 29.1681 21.2132L26.5165 23.8649" stroke="#2DD1F5" stroke-width="1.5625"/>
<path d="M17.2357 25.1907L25.1907 17.2357" stroke="#2DD1F5" stroke-width="1.5625"/>
</g>
<defs>
<clipPath id="clip0_9_32">
<rect width="30" height="30" fill="white" transform="translate(0 21.2132) rotate(-45)"/>
</clipPath>
</defs>
</svg>
